<?xml version="1.0" encoding="utf-8"?>
<!-- Generator: Adobe Illustrator 22.1.0, SVG Export Plug-In . SVG Version: 6.00 Build 0)  -->
<!DOCTYPE svg PUBLIC "-//W3C//DTD SVG 1.1//EN" "http://www.w3.org/Graphics/SVG/1.1/DTD/svg11.dtd">
<svg version="1.1" id="Layer_1" xmlns="http://www.w3.org/2000/svg" xmlns:xlink="http://www.w3.org/1999/xlink" x="0px" y="0px"
	 viewBox="0 0 293.2 81.8" style="enable-background:new 0 0 293.2 81.8;" xml:space="preserve">
<style type="text/css">
	.st0{fill:#BC9A6A;}
</style>
<title>Designmaster</title>
<g id="Layer_2_1_">
	<g id="Layer_1-2">
		<path d="M10.1,62.8v-0.9h1.1c0.8,0,1.6-0.1,2.2-0.5c0.5-0.3,0.9-0.7,1.2-1.3c0.2-1,0.3-2.1,0.2-3.1V34.8c0.1-1.1,0-2.2-0.3-3.2
			c-0.2-0.5-0.6-0.9-1.1-1.1c-0.7-0.4-1.5-0.5-2.2-0.5h-1.1V29h15.1c3.3-0.1,6.6,0.4,9.7,1.6c2.9,1.2,5.3,3.4,6.8,6.1
			c1.6,2.8,2.4,6,2.3,9.2c0,2.2-0.4,4.5-1.2,6.6c-0.7,1.8-1.7,3.5-3,5c-1.2,1.3-2.6,2.4-4.2,3.1c-1.8,0.9-3.8,1.5-5.8,1.8
			c-1.6,0.2-3.2,0.3-4.8,0.3L10.1,62.8z M22.9,30.9v26.4c-0.1,0.9,0,1.7,0.2,2.6c0.1,0.3,0.4,0.6,0.7,0.7c0.6,0.3,1.3,0.4,1.9,0.4
			c2.4,0.1,4.8-0.9,6.3-2.8c2-2.5,3-6.5,3-11.9c0-4.3-0.7-7.8-2-10.4c-0.9-1.8-2.3-3.3-4.2-4.1C27,31,24.9,30.8,22.9,30.9z"/>
		<path d="M52.3,30.3v8.9h0.4c1.2,0.1,2.3-0.4,3-1.3c0.7-1.2,1.1-2.5,1.2-3.9h0.6v11.4h-0.6c-0.1-1.1-0.4-2.1-0.8-3.1
			c-0.3-0.7-0.8-1.2-1.4-1.6c-0.8-0.3-1.6-0.5-2.4-0.4v6.2c0,0.7,0,1.5,0.2,2.2c0.1,0.3,0.3,0.5,0.6,0.7c0.4,0.2,0.9,0.3,1.3,0.3
			h1.3c1.7,0.1,3.5-0.4,4.9-1.4c1.3-1.1,2.3-2.6,2.7-4.3h0.6l-1,7H44v-0.6h0.7c0.5,0,1.1-0.1,1.5-0.3c0.3-0.2,0.5-0.4,0.7-0.8
			c0.2-0.7,0.2-1.4,0.2-2.1V32.8c0-0.6,0-1.2-0.1-1.8c-0.1-0.3-0.3-0.7-0.6-0.9c-0.5-0.3-1.1-0.5-1.7-0.5H44V29h18.3v6.5h-0.6
			c-0.2-1.2-0.6-2.4-1.3-3.4c-0.6-0.7-1.5-1.3-2.4-1.5c-1.1-0.2-2.3-0.3-3.4-0.3L52.3,30.3z"/>
		<path d="M79.3,28.5l0.2,7.3h-0.7c-0.2-1.7-1-3.2-2.3-4.4c-1.1-1.1-2.5-1.7-4-1.7c-0.9,0-1.9,0.3-2.6,0.9c-0.6,0.5-1,1.2-1,2
			c0,0.5,0.1,0.9,0.3,1.3c0.4,0.6,0.9,1.1,1.5,1.5c1.1,0.7,2.3,1.3,3.5,1.9c1.9,0.8,3.7,2,5.2,3.6c0.9,1.1,1.3,2.4,1.3,3.8
			c0,1.8-0.8,3.5-2.1,4.7c-1.5,1.3-3.4,2.1-5.4,2c-0.7,0-1.3-0.1-1.9-0.2c-0.8-0.2-1.6-0.5-2.3-0.8c-0.4-0.2-0.8-0.2-1.2-0.3
			c-0.3,0-0.6,0.1-0.9,0.3c-0.3,0.3-0.6,0.6-0.8,1h-0.6v-8.3h0.6c0.3,2,1.3,3.9,2.7,5.3c1.2,1.1,2.7,1.8,4.4,1.8
			c1.1,0.1,2.1-0.3,2.9-1c0.7-0.6,1.1-1.4,1.1-2.3c0-0.5-0.1-1-0.4-1.5c-0.3-0.5-0.8-1-1.2-1.3c-0.9-0.7-1.9-1.2-3-1.7
			c-1.5-0.7-2.9-1.5-4.3-2.5c-0.8-0.6-1.5-1.4-2-2.3c-0.5-0.9-0.7-1.8-0.7-2.8c0-1.7,0.7-3.3,1.9-4.5c1.3-1.2,3-1.9,4.8-1.8
			c0.7,0,1.4,0.1,2.1,0.2c0.6,0.2,1.3,0.4,1.8,0.7c0.5,0.3,1,0.4,1.5,0.5c0.2,0,0.5-0.1,0.7-0.2c0.2-0.4,0.4-0.8,0.4-1.2L79.3,28.5z
			"/>
		<path d="M92.7,50.3v0.6H81.3v-0.6h0.8c0.5,0,1.1-0.1,1.5-0.3c0.3-0.2,0.5-0.4,0.6-0.8c0.2-0.7,0.2-1.3,0.2-2V32.8
			c0-0.7,0-1.4-0.2-2.1c-0.2-0.3-0.4-0.6-0.7-0.7c-0.5-0.2-1-0.3-1.5-0.3h-0.7V29h11.4v0.6H92c-0.5,0-1.1,0.1-1.5,0.3
			c-0.3,0.2-0.5,0.4-0.7,0.8c-0.2,0.7-0.2,1.3-0.2,2v14.4c0,0.7,0,1.4,0.2,2.1c0.2,0.3,0.4,0.6,0.7,0.7c0.5,0.2,1,0.3,1.5,0.3
			L92.7,50.3z"/>
		<path d="M114.7,28.5v7.7h-0.6c-0.6-1.9-1.7-3.6-3.2-4.8c-1.3-1.1-3-1.6-4.7-1.6c-1.5-0.1-3,0.4-4.1,1.3c-1.1,1-1.9,2.4-2.3,3.8
			c-0.5,1.6-0.7,3.4-0.7,5.1c0,1.9,0.2,3.7,0.7,5.5c0.4,1.4,1.2,2.6,2.4,3.5c1.2,0.8,2.5,1.2,3.9,1.1c0.5,0,1.1-0.1,1.6-0.2
			c0.6-0.1,1.1-0.3,1.7-0.5V45c0-0.6,0-1.1-0.2-1.7c-0.2-0.3-0.4-0.5-0.7-0.7c-0.4-0.2-0.9-0.3-1.3-0.3h-0.6v-0.6h10.6v0.6
			c-0.6,0-1.1,0.1-1.7,0.3c-0.3,0.2-0.6,0.5-0.7,0.8c-0.1,0.5-0.2,1-0.2,1.5v4.5c-1.4,0.6-2.9,1.1-4.3,1.4c-1.5,0.3-3.1,0.5-4.7,0.5
			c-1.8,0.1-3.5-0.2-5.2-0.8c-1.3-0.5-2.5-1.3-3.6-2.2c-1-0.9-1.8-1.9-2.5-3.1c-0.8-1.6-1.2-3.3-1.1-5c-0.1-3.1,1.2-6.2,3.5-8.3
			c2.3-2.3,5.5-3.5,8.7-3.4c1,0,2,0.1,2.9,0.3c0.8,0.2,1.5,0.4,2.3,0.7c0.6,0.3,1.2,0.5,1.9,0.6c0.3,0,0.6-0.1,0.8-0.3
			c0.3-0.3,0.6-0.8,0.7-1.2L114.7,28.5z"/>
		<path d="M124.3,29l10.8,13.5v-9.4c0.1-0.9-0.1-1.9-0.6-2.7c-0.7-0.7-1.6-1-2.6-0.9V29h7.2v0.6c-0.6,0-1.3,0.2-1.9,0.5
			c-0.3,0.2-0.6,0.5-0.7,0.9c-0.2,0.7-0.3,1.4-0.3,2.2v18.2h-0.6L121,33.2v13.9c-0.1,0.9,0.2,1.9,0.9,2.5c0.6,0.4,1.3,0.7,2,0.7h0.5
			v0.6h-7.8v-0.6c0.9,0.1,1.8-0.2,2.5-0.7c0.5-0.7,0.8-1.6,0.7-2.5V31.6l-0.5-0.6c-0.3-0.5-0.7-0.8-1.2-1.1c-0.5-0.2-1-0.3-1.5-0.3
			V29L124.3,29z"/>
		<path d="M154.2,43.4l5.9-14.4h8.9v0.6h-0.7c-0.5,0-1.1,0.1-1.5,0.3c-0.3,0.2-0.5,0.4-0.6,0.8c-0.2,0.7-0.2,1.3-0.2,2v14.4
			c0,0.7,0,1.4,0.2,2.1c0.2,0.3,0.4,0.6,0.7,0.7c0.5,0.2,1,0.3,1.5,0.3h0.7v0.6h-11.4v-0.6h0.7c0.5,0,1.1-0.1,1.6-0.3
			c0.3-0.2,0.5-0.4,0.6-0.8c0.2-0.7,0.2-1.3,0.2-2V30.9l-8.4,19.9h-0.4l-8.5-19.8v15.4c0,0.7,0,1.3,0.1,2c0.1,0.5,0.5,1,0.9,1.3
			c0.7,0.4,1.4,0.6,2.2,0.5v0.6h-7.5v-0.6h0.2c0.5,0,0.9-0.1,1.4-0.2c0.4-0.1,0.7-0.4,0.9-0.7c0.2-0.4,0.4-0.8,0.5-1.2
			c0-0.1,0-0.7,0-1.6V32.7c0-0.7,0-1.4-0.2-2.1c-0.2-0.3-0.4-0.6-0.7-0.7c-0.5-0.2-1-0.3-1.5-0.3h-0.7V29h9L154.2,43.4z"/>
		<path d="M181.8,44.7h-7.7l-0.9,2.1c-0.3,0.6-0.4,1.1-0.4,1.8c0,0.6,0.3,1.1,0.7,1.3c0.7,0.3,1.4,0.4,2.1,0.4v0.6h-7.3v-0.6
			c0.7-0.1,1.4-0.5,1.9-1c0.8-1,1.4-2.1,1.9-3.3l7.8-17.4h0.3l7.9,17.9c0.4,1.2,1.1,2.3,1.9,3.2c0.4,0.4,1,0.6,1.6,0.6v0.6h-10.6
			v-0.6h0.4c0.6,0.1,1.2-0.1,1.8-0.4c0.2-0.2,0.4-0.4,0.4-0.7c0-0.2,0-0.4-0.1-0.6c0-0.1-0.2-0.5-0.5-1.2L181.8,44.7z M181.2,43.5
			l-3.2-7.5l-3.4,7.5H181.2z"/>
		<path d="M205.2,28.5l0.2,7.3h-0.7c-0.2-1.7-1.1-3.2-2.3-4.4c-1.1-1.1-2.5-1.7-4-1.7c-0.9,0-1.9,0.3-2.6,0.9c-0.6,0.5-1,1.2-1,2
			c0,0.5,0.1,0.9,0.3,1.3c0.4,0.6,0.9,1.1,1.5,1.5c1.1,0.7,2.3,1.3,3.5,1.9c2,0.8,3.7,2,5.2,3.6c0.9,1.1,1.3,2.4,1.3,3.8
			c0,1.8-0.8,3.5-2.1,4.7c-1.5,1.3-3.4,2.1-5.4,2c-0.7,0-1.3-0.1-1.9-0.2c-0.8-0.2-1.6-0.5-2.3-0.8c-0.4-0.2-0.8-0.2-1.2-0.3
			c-0.3,0-0.6,0.1-0.9,0.3c-0.3,0.3-0.6,0.6-0.8,1h-0.6v-8.3h0.6c0.3,2,1.3,3.9,2.7,5.3c1.2,1.1,2.7,1.8,4.4,1.8
			c1.1,0.1,2.1-0.3,2.9-1c1.1-0.9,1.4-2.5,0.7-3.8c-0.3-0.5-0.7-1-1.2-1.3c-0.9-0.7-1.9-1.2-3-1.7c-1.5-0.7-2.9-1.5-4.3-2.5
			c-0.8-0.6-1.5-1.4-2-2.3c-0.5-0.9-0.7-1.8-0.7-2.8c0-1.7,0.7-3.3,1.9-4.5c1.3-1.2,3-1.9,4.8-1.8c0.7,0,1.4,0.1,2.1,0.2
			c0.6,0.2,1.3,0.4,1.9,0.7c0.5,0.3,1,0.4,1.5,0.5c0.2,0,0.5-0.1,0.7-0.2c0.2-0.4,0.4-0.8,0.4-1.2L205.2,28.5z"/>
		<path d="M226.1,29v5.9h-0.6c-0.2-1-0.6-2-1.1-2.9c-0.4-0.6-1-1.1-1.7-1.4c-0.7-0.2-1.4-0.3-2.1-0.3h-1.6v16.8c0,0.7,0,1.4,0.2,2.1
			c0.2,0.3,0.4,0.6,0.7,0.7c0.5,0.2,1,0.3,1.5,0.3h0.7v0.6h-11.4v-0.6h0.7c0.5,0,1.1-0.1,1.5-0.3c0.3-0.2,0.5-0.4,0.7-0.8
			c0.2-0.7,0.2-1.3,0.2-2V30.3h-1.5c-1.1-0.1-2.3,0.2-3.2,0.9c-1,1-1.6,2.3-1.8,3.7h-0.6V29H226.1z"/>
		<path d="M234.7,30.3v8.9h0.4c1.2,0.1,2.3-0.4,3-1.3c0.7-1.2,1.1-2.5,1.2-3.9h0.6v11.4h-0.6c-0.1-1.1-0.4-2.1-0.8-3.1
			c-0.3-0.7-0.8-1.2-1.4-1.6c-0.8-0.3-1.6-0.5-2.4-0.4v6.2c0,0.7,0,1.5,0.2,2.2c0.1,0.3,0.3,0.5,0.6,0.7c0.4,0.2,0.9,0.3,1.4,0.3
			h1.3c1.7,0.1,3.5-0.4,4.9-1.4c1.3-1.1,2.3-2.6,2.6-4.3h0.6l-1,7h-18.8v-0.6h0.7c0.5,0,1.1-0.1,1.5-0.3c0.3-0.2,0.5-0.4,0.6-0.8
			c0.2-0.7,0.2-1.3,0.2-2V32.8c0-0.6,0-1.2-0.1-1.8c-0.1-0.3-0.3-0.7-0.6-0.9c-0.5-0.3-1.1-0.5-1.7-0.5h-0.7V29h18.3v6.5h-0.6
			c-0.2-1.2-0.6-2.4-1.3-3.4c-0.6-0.7-1.5-1.3-2.4-1.5c-1.1-0.2-2.2-0.3-3.4-0.3L234.7,30.3z"/>
		<path d="M280.1,28.3c0.5,0,1,0.1,1.5,0.4c0.5,0.3,0.9,0.7,1.1,1.1c0.3,0.5,0.4,1,0.4,1.5c0,0.5-0.1,1.1-0.4,1.5
			c-0.3,0.5-0.7,0.9-1.1,1.1c-0.9,0.5-2.1,0.5-3,0c-0.5-0.3-0.9-0.6-1.1-1.1c-0.3-0.5-0.4-1-0.4-1.5c0-0.5,0.1-1.1,0.4-1.5
			c0.3-0.5,0.7-0.9,1.1-1.1C279.1,28.4,279.6,28.3,280.1,28.3z M280.1,28.7c-0.5,0-0.9,0.1-1.3,0.4c-0.4,0.2-0.8,0.6-1,1
			c-0.5,0.8-0.5,1.8,0,2.7c0.2,0.4,0.6,0.8,1,1c0.8,0.5,1.8,0.5,2.6,0c0.4-0.2,0.8-0.6,1-1c0.5-0.8,0.5-1.8,0-2.7
			c-0.2-0.4-0.6-0.8-1-1C281,28.8,280.6,28.7,280.1,28.7z M278.5,29.6h1.6c0.4,0,0.7,0,1.1,0.2c0.3,0.2,0.4,0.4,0.4,0.8
			c0,0.2-0.1,0.4-0.2,0.5c-0.2,0.2-0.4,0.3-0.6,0.3l0.6,1.1c0.1,0.1,0.1,0.3,0.3,0.3c0.1,0,0.1,0.1,0.2,0.1V33h-1l-0.9-1.6h-0.2v0.9
			c0,0.2,0,0.3,0.1,0.5c0.1,0.1,0.3,0.1,0.4,0.1V33h-1.8v-0.1c0.1,0,0.2,0,0.4-0.1c0.1-0.1,0.1-0.3,0.1-0.5v-2c0-0.2,0-0.3-0.1-0.5
			c-0.1-0.1-0.2-0.1-0.3-0.1L278.5,29.6z M279.7,31.2h0.2c0.2,0,0.4-0.1,0.5-0.2c0.1-0.2,0.2-0.4,0.2-0.6c0-0.2-0.1-0.4-0.2-0.5
			c-0.2-0.1-0.4-0.2-0.6-0.2h-0.2V31.2z"/>
		<path d="M50.2,55.5v2.6h0.2c0.2,0,0.5,0,0.7-0.1c0.2-0.1,0.3-0.2,0.5-0.4c0.1-0.2,0.2-0.5,0.2-0.8h0.2v3.2h-0.2
			c0-0.4-0.2-0.9-0.5-1.2c-0.3-0.2-0.6-0.3-0.9-0.3h-0.2v1.9c0,0.2,0,0.4,0,0.6c0,0.1,0.1,0.2,0.2,0.2c0.1,0.1,0.3,0.1,0.4,0.1h0.2
			v0.2h-3.3v-0.2H48c0.2,0,0.3,0,0.4-0.1c0.1,0,0.1-0.1,0.2-0.2c0-0.2,0.1-0.4,0-0.6v-4.2c0-0.2,0-0.4,0-0.6c0-0.1-0.1-0.2-0.2-0.2
			c-0.1-0.1-0.3-0.1-0.4-0.1h-0.2v-0.2h5.3v1.8h-0.2c0-0.3-0.1-0.7-0.3-1c-0.2-0.2-0.5-0.4-0.8-0.4c-0.3-0.1-0.7-0.1-1-0.1
			L50.2,55.5z"/>
		<path d="M70.9,55.1h3.2v0.2H74c-0.2,0-0.3,0-0.5,0.1c-0.1,0-0.2,0.1-0.2,0.2c-0.1,0.2-0.1,0.4-0.1,0.7v3.1c0,0.4,0,0.8,0.1,1.1
			c0.1,0.2,0.2,0.4,0.4,0.5c0.2,0.1,0.5,0.2,0.7,0.2c0.3,0,0.6-0.1,0.9-0.2c0.2-0.2,0.4-0.4,0.5-0.6c0.1-0.5,0.2-0.9,0.2-1.4v-2.5
			c0-0.2,0-0.4-0.1-0.6c0-0.1-0.1-0.2-0.2-0.2c-0.2-0.1-0.4-0.1-0.6-0.1v-0.2h2.2v0.2h-0.1c-0.2,0-0.3,0-0.4,0.1
			c-0.1,0.1-0.2,0.2-0.3,0.3c0,0.2-0.1,0.4-0.1,0.5v2.4c0,0.5,0,1.1-0.2,1.6c-0.1,0.4-0.4,0.7-0.7,0.9c-0.5,0.3-1,0.4-1.5,0.4
			c-0.4,0-0.9-0.1-1.3-0.2c-0.4-0.2-0.7-0.4-0.9-0.8c-0.2-0.4-0.3-0.8-0.2-1.2v-3.1c0-0.2,0-0.5-0.1-0.7c0-0.1-0.1-0.2-0.2-0.2
			c-0.2-0.1-0.4-0.1-0.5-0.1L70.9,55.1z"/>
		<path d="M97.3,58.6v1.8c0,0.2,0,0.4,0.1,0.6c0.1,0.1,0.1,0.2,0.2,0.2c0.2,0.1,0.4,0.1,0.6,0.1v0.2H95v-0.2c0.2,0,0.4,0,0.6-0.1
			c0.1,0,0.2-0.1,0.2-0.2c0.1-0.2,0.1-0.4,0.1-0.6v-4.1c0-0.2,0-0.4-0.1-0.7c0-0.1-0.1-0.2-0.2-0.2c-0.2-0.1-0.4-0.1-0.6-0.1v-0.2
			h2.9c0.6,0,1.1,0,1.7,0.2c0.3,0.1,0.6,0.3,0.9,0.6c0.2,0.3,0.3,0.6,0.3,1c0,0.4-0.2,0.9-0.5,1.2c-0.3,0.2-0.6,0.4-0.9,0.4l1.5,2.1
			c0.1,0.2,0.3,0.4,0.4,0.5c0.1,0.1,0.3,0.2,0.4,0.2v0.2h-2l-2-2.9L97.3,58.6z M97.3,55.5v2.8h0.3c0.3,0,0.7,0,1-0.1
			c0.2-0.1,0.4-0.2,0.5-0.4c0.1-0.2,0.2-0.5,0.2-0.8c0-0.4-0.1-0.8-0.3-1.1c-0.3-0.3-0.7-0.4-1.1-0.3H97.3z"/>
		<path d="M121.3,55.1l3.1,3.9v-2.7c0-0.3,0-0.5-0.2-0.8c-0.2-0.2-0.5-0.3-0.8-0.3v-0.2h2.1v0.2c-0.2,0-0.4,0.1-0.5,0.1
			c-0.1,0.1-0.2,0.2-0.2,0.3c-0.1,0.2-0.1,0.4-0.1,0.6v5.2h-0.2l-4.2-5.2v4c-0.1,0.4,0.2,0.8,0.6,0.9c0.1,0,0.1,0,0.2,0h0.2v0.2
			h-2.2v-0.2c0.3,0,0.5,0,0.7-0.2c0.2-0.2,0.2-0.5,0.2-0.7v-4.4l-0.1-0.2c-0.1-0.1-0.2-0.2-0.4-0.3c-0.1-0.1-0.3-0.1-0.4-0.1v-0.2
			H121.3z"/>
		<path d="M146.5,61.3v0.2h-3.3v-0.2h0.2c0.2,0,0.3,0,0.4-0.1c0.1-0.1,0.2-0.1,0.2-0.2c0-0.2,0.1-0.4,0.1-0.6v-4.1
			c0-0.2,0-0.4-0.1-0.6c0-0.1-0.1-0.2-0.2-0.2c-0.1-0.1-0.3-0.1-0.4-0.1h-0.2v-0.2h3.3v0.2h-0.2c-0.2,0-0.3,0-0.4,0.1
			c-0.1,0.1-0.2,0.1-0.2,0.2c0,0.2-0.1,0.4-0.1,0.6v4.1c0,0.2,0,0.4,0.1,0.6c0,0.1,0.1,0.2,0.2,0.2c0.1,0.1,0.3,0.1,0.4,0.1
			L146.5,61.3z"/>
		<path d="M170.1,55.1v1.7h-0.2c-0.1-0.3-0.2-0.6-0.3-0.8c-0.1-0.2-0.3-0.3-0.5-0.4c-0.2-0.1-0.4-0.1-0.6-0.1H168v4.9
			c0,0.2,0,0.4,0.1,0.6c0,0.1,0.1,0.2,0.2,0.2c0.1,0.1,0.3,0.1,0.4,0.1h0.2v0.2h-3.3v-0.2h0.2c0.2,0,0.3,0,0.4-0.1
			c0.1,0,0.2-0.1,0.2-0.2c0.1-0.2,0.1-0.4,0.1-0.6v-4.8H166c-0.3,0-0.7,0.1-0.9,0.3c-0.3,0.3-0.5,0.7-0.5,1.1h-0.2v-1.7H170.1z"/>
		<path d="M187.9,55.1h3.2v0.2H191c-0.2,0-0.3,0-0.5,0.1c-0.1,0-0.2,0.1-0.2,0.2c0,0.2-0.1,0.4-0.1,0.7v3.1c0,0.4,0,0.8,0.1,1.1
			c0.1,0.2,0.2,0.3,0.4,0.5c0.2,0.1,0.5,0.2,0.7,0.2c0.3,0,0.6-0.1,0.9-0.2c0.2-0.2,0.4-0.4,0.5-0.6c0.1-0.5,0.2-0.9,0.2-1.4v-2.5
			c0-0.2,0-0.4-0.1-0.6c0-0.1-0.1-0.2-0.2-0.2c-0.2-0.1-0.4-0.1-0.6-0.1v-0.2h2.2v0.2h-0.1c-0.2,0-0.3,0-0.4,0.1
			c-0.1,0.1-0.2,0.2-0.2,0.3c0,0.2-0.1,0.4-0.1,0.5v2.4c0,0.5,0,1.1-0.1,1.6c-0.1,0.4-0.4,0.7-0.7,0.9c-0.5,0.3-1,0.4-1.6,0.4
			c-0.4,0-0.9-0.1-1.3-0.2c-0.4-0.2-0.7-0.4-0.9-0.8c-0.2-0.4-0.3-0.8-0.3-1.2v-3.1c0-0.2,0-0.5-0.1-0.7c0-0.1-0.1-0.2-0.2-0.2
			c-0.2-0.1-0.4-0.1-0.6-0.1L187.9,55.1z"/>
		<path d="M214.3,58.6v1.8c0,0.2,0,0.4,0.1,0.6c0,0.1,0.1,0.2,0.2,0.2c0.2,0.1,0.4,0.1,0.6,0.1v0.2H212v-0.2c0.2,0,0.4,0,0.6-0.1
			c0.1,0,0.2-0.1,0.2-0.2c0.1-0.2,0.1-0.4,0.1-0.6v-4.1c0-0.2,0-0.4-0.1-0.7c0-0.1-0.1-0.2-0.2-0.2c-0.2-0.1-0.4-0.1-0.6-0.1v-0.2
			h2.9c0.6,0,1.1,0,1.7,0.2c0.3,0.1,0.6,0.3,0.9,0.6c0.2,0.3,0.3,0.6,0.3,1c0,0.4-0.2,0.9-0.5,1.2c-0.3,0.2-0.6,0.4-0.9,0.4l1.5,2.1
			c0.1,0.2,0.3,0.4,0.4,0.5c0.1,0.1,0.3,0.2,0.4,0.2v0.2h-2l-2-2.9L214.3,58.6z M214.3,55.5v2.8h0.3c0.3,0,0.7,0,1-0.1
			c0.2-0.1,0.4-0.2,0.5-0.4c0.1-0.2,0.2-0.5,0.2-0.8c0-0.4-0.1-0.8-0.3-1.1c-0.3-0.3-0.7-0.4-1.1-0.3H214.3z"/>
		<path d="M238.5,55.5v2.6h0.1c0.3,0,0.7-0.1,0.9-0.4c0.2-0.3,0.3-0.7,0.3-1.1h0.2v3.3h-0.2c0-0.3-0.1-0.6-0.2-0.9
			c-0.1-0.2-0.2-0.4-0.4-0.5c-0.2-0.1-0.4-0.1-0.7-0.1v1.8c0,0.2,0,0.4,0,0.6c0,0.1,0.1,0.1,0.2,0.2c0.1,0.1,0.3,0.1,0.4,0.1h0.4
			c0.5,0,1-0.1,1.4-0.4c0.4-0.3,0.7-0.8,0.8-1.2h0.2l-0.3,2h-5.4v-0.2h0.2c0.2,0,0.3,0,0.4-0.1c0.1,0,0.1-0.1,0.2-0.2
			c0-0.2,0.1-0.4,0.1-0.6v-4.1c0-0.2,0-0.4,0-0.5c0-0.1-0.1-0.2-0.2-0.2c-0.1-0.1-0.3-0.1-0.5-0.1h-0.2v-0.2h5.3V57h-0.2
			c0-0.4-0.2-0.7-0.4-1c-0.2-0.2-0.4-0.4-0.7-0.4c-0.3-0.1-0.7-0.1-1-0.1L238.5,55.5z"/>
		<path d="M258.7,47.4v9.5c-0.1,1.2,0,2.3,0.3,3.5c0.3,0.5,0.7,0.9,1.2,1.1c1,0.4,2.1,0.5,3.2,0.4v0.9h-17.3v-0.9
			c1.1,0.1,2.2-0.1,3.2-0.4c0.5-0.2,0.9-0.6,1.2-1.1c0.3-1.1,0.4-2.3,0.3-3.4V34.9c0.1-1.2,0-2.3-0.3-3.5c-0.3-0.5-0.7-0.9-1.2-1.1
			c-1-0.4-2.1-0.5-3.2-0.4V29h15.7c3-0.1,6,0.2,9,0.8c1.8,0.5,3.5,1.6,4.6,3.1c1.2,1.5,1.8,3.4,1.8,5.3c0.1,2.4-0.9,4.6-2.7,6.2
			c-1.4,1.1-3,1.9-4.8,2.3l8.1,11.4c0.7,1,1.4,1.9,2.3,2.8c0.7,0.5,1.5,0.8,2.4,0.8v0.9h-10.6l-10.9-15.4H258.7z M258.7,30.8v14.8
			h1.4c1.8,0.1,3.5-0.1,5.2-0.6c1.1-0.4,2.1-1.2,2.7-2.3c0.7-1.3,1.1-2.8,1-4.3c0-2.6-0.6-4.5-1.8-5.7c-1.2-1.2-3.1-1.8-5.8-1.8
			H258.7z"/>
		<rect x="11.1" y="69.4" width="269" height="2.3"/>
		<rect x="48.6" y="74.7" width="194.1" height="1"/>
		<polygon class="st0" points="136.9,13.2 144.5,23.4 152.4,13.2 148.4,6.1 140.7,6.1 		"/>
		<polygon class="st0" points="152.9,12.9 158,12.9 154,6.1 149.1,6.1 		"/>
		<polygon class="st0" points="136.3,12.9 140,6.1 135.2,6.1 131.2,12.9 		"/>
		<polygon class="st0" points="152.9,13.5 144.5,24.4 136.4,13.5 131.2,13.5 144.5,27.4 158,13.5 		"/>
		<polygon points="135.8,20.4 11.1,20.4 11.1,22.7 138,22.7 		"/>
		<polygon points="153.3,20.4 151.1,22.7 280.1,22.7 280.1,20.4 		"/>
		<polygon points="157.2,16.4 156.3,17.4 242.7,17.4 242.7,16.4 		"/>
		<polygon points="132,16.4 48.6,16.4 48.6,17.4 132.9,17.4 		"/>
	</g>
</g>
</svg>
